<svg width="20" height="16" viewBox="0 0 20 16" fill="none" xmlns="http://www.w3.org/2000/svg">
<path fill-rule="evenodd" clip-rule="evenodd" d="M14.5 15C14.7761 15 15 14.7761 15 14.5V2.70711L18.1464 5.85355C18.3417 6.04882 18.6583 6.04882 18.8536 5.85355C19.0488 5.65829 19.0488 5.34171 18.8536 5.14645L14.8536 1.14645C14.6583 0.951184 14.3417 0.951184 14.1464 1.14645L10.1464 5.14645C9.95118 5.34171 9.95118 5.65829 10.1464 5.85355C10.3417 6.04882 10.6583 6.04882 10.8536 5.85355L14 2.70711V14.5C14 14.7761 14.2239 15 14.5 15Z" fill="black" stroke="black" stroke-linecap="round" stroke-linejoin="round"/>
<path fill-rule="evenodd" clip-rule="evenodd" d="M5.5 1C5.77614 1 6 1.22386 6 1.5V13.2929L9.14645 10.1464C9.34171 9.95118 9.65829 9.95118 9.85355 10.1464C10.0488 10.3417 10.0488 10.6583 9.85355 10.8536L5.85355 14.8536C5.65829 15.0488 5.34171 15.0488 5.14645 14.8536L1.14645 10.8536C0.951184 10.6583 0.951184 10.3417 1.14645 10.1464C1.34171 9.95118 1.65829 9.95118 1.85355 10.1464L5 13.2929V1.5C5 1.22386 5.22386 1 5.5 1Z" fill="black" stroke="black" stroke-linecap="round" stroke-linejoin="round"/>
</svg>
